<svg id="visual" viewBox="0 0 1370 650" width="1370" height="650" xmlns="http://www.w3.org/2000/svg" xmlns:xlink="http://www.w3.org/1999/xlink" version="1.1"><rect x="0" y="0" width="1370" height="650" fill="#001220"></rect><defs><linearGradient id="grad1_0" x1="52.6%" y1="0%" x2="100%" y2="100%"><stop offset="7.846153846153844%" stop-color="#fd9800" stop-opacity="1"></stop><stop offset="92.15384615384615%" stop-color="#fd9800" stop-opacity="1"></stop></linearGradient></defs><defs><linearGradient id="grad1_1" x1="52.6%" y1="0%" x2="100%" y2="100%"><stop offset="7.846153846153844%" stop-color="#fd9800" stop-opacity="1"></stop><stop offset="92.15384615384615%" stop-color="#f76b3d" stop-opacity="1"></stop></linearGradient></defs><defs><linearGradient id="grad1_2" x1="52.6%" y1="0%" x2="100%" y2="100%"><stop offset="7.846153846153844%" stop-color="#dc4a5a" stop-opacity="1"></stop><stop offset="92.15384615384615%" stop-color="#f76b3d" stop-opacity="1"></stop></linearGradient></defs><defs><linearGradient id="grad1_3" x1="52.6%" y1="0%" x2="100%" y2="100%"><stop offset="7.846153846153844%" stop-color="#dc4a5a" stop-opacity="1"></stop><stop offset="92.15384615384615%" stop-color="#b03a6b" stop-opacity="1"></stop></linearGradient></defs><defs><linearGradient id="grad1_4" x1="52.6%" y1="0%" x2="100%" y2="100%"><stop offset="7.846153846153844%" stop-color="#7a356c" stop-opacity="1"></stop><stop offset="92.15384615384615%" stop-color="#b03a6b" stop-opacity="1"></stop></linearGradient></defs><defs><linearGradient id="grad1_5" x1="52.6%" y1="0%" x2="100%" y2="100%"><stop offset="7.846153846153844%" stop-color="#7a356c" stop-opacity="1"></stop><stop offset="92.15384615384615%" stop-color="#452f5d" stop-opacity="1"></stop></linearGradient></defs><defs><linearGradient id="grad1_6" x1="52.6%" y1="0%" x2="100%" y2="100%"><stop offset="7.846153846153844%" stop-color="#192342" stop-opacity="1"></stop><stop offset="92.15384615384615%" stop-color="#452f5d" stop-opacity="1"></stop></linearGradient></defs><defs><linearGradient id="grad1_7" x1="52.6%" y1="0%" x2="100%" y2="100%"><stop offset="7.846153846153844%" stop-color="#192342" stop-opacity="1"></stop><stop offset="92.15384615384615%" stop-color="#001220" stop-opacity="1"></stop></linearGradient></defs><defs><linearGradient id="grad2_0" x1="0%" y1="0%" x2="47.4%" y2="100%"><stop offset="7.846153846153844%" stop-color="#fd9800" stop-opacity="1"></stop><stop offset="92.15384615384615%" stop-color="#fd9800" stop-opacity="1"></stop></linearGradient></defs><defs><linearGradient id="grad2_1" x1="0%" y1="0%" x2="47.4%" y2="100%"><stop offset="7.846153846153844%" stop-color="#f76b3d" stop-opacity="1"></stop><stop offset="92.15384615384615%" stop-color="#fd9800" stop-opacity="1"></stop></linearGradient></defs><defs><linearGradient id="grad2_2" x1="0%" y1="0%" x2="47.4%" y2="100%"><stop offset="7.846153846153844%" stop-color="#f76b3d" stop-opacity="1"></stop><stop offset="92.15384615384615%" stop-color="#dc4a5a" stop-opacity="1"></stop></linearGradient></defs><defs><linearGradient id="grad2_3" x1="0%" y1="0%" x2="47.4%" y2="100%"><stop offset="7.846153846153844%" stop-color="#b03a6b" stop-opacity="1"></stop><stop offset="92.15384615384615%" stop-color="#dc4a5a" stop-opacity="1"></stop></linearGradient></defs><defs><linearGradient id="grad2_4" x1="0%" y1="0%" x2="47.4%" y2="100%"><stop offset="7.846153846153844%" stop-color="#b03a6b" stop-opacity="1"></stop><stop offset="92.15384615384615%" stop-color="#7a356c" stop-opacity="1"></stop></linearGradient></defs><defs><linearGradient id="grad2_5" x1="0%" y1="0%" x2="47.4%" y2="100%"><stop offset="7.846153846153844%" stop-color="#452f5d" stop-opacity="1"></stop><stop offset="92.15384615384615%" stop-color="#7a356c" stop-opacity="1"></stop></linearGradient></defs><defs><linearGradient id="grad2_6" x1="0%" y1="0%" x2="47.4%" y2="100%"><stop offset="7.846153846153844%" stop-color="#452f5d" stop-opacity="1"></stop><stop offset="92.15384615384615%" stop-color="#192342" stop-opacity="1"></stop></linearGradient></defs><defs><linearGradient id="grad2_7" x1="0%" y1="0%" x2="47.4%" y2="100%"><stop offset="7.846153846153844%" stop-color="#001220" stop-opacity="1"></stop><stop offset="92.15384615384615%" stop-color="#192342" stop-opacity="1"></stop></linearGradient></defs><g transform="translate(1370, 0)"><path d="M0 357.5C-36.3 343.2 -72.6 328.9 -99.5 306.2C-126.4 283.6 -144 252.7 -169.9 233.8C-195.7 214.9 -229.9 208.2 -262.1 190.4C-294.3 172.7 -324.4 144 -340 110.5C-355.6 76.9 -356.5 38.5 -357.5 0L0 0Z" fill="#091b31"></path><path d="M0 312.8C-31.8 300.3 -63.5 287.8 -87.1 268C-110.6 248.2 -126 221.1 -148.6 204.6C-171.3 188.1 -201.2 182.1 -229.4 166.6C-257.5 151.1 -283.9 126 -297.5 96.7C-311.1 67.3 -312 33.6 -312.8 0L0 0Z" fill="#2d2a51"></path><path d="M0 268.1C-27.2 257.4 -54.4 246.7 -74.6 229.7C-94.8 212.7 -108 189.5 -127.4 175.4C-146.8 161.2 -172.5 156.1 -196.6 142.8C-220.7 129.5 -243.3 108 -255 82.9C-266.7 57.7 -267.4 28.8 -268.1 0L0 0Z" fill="#5f3367"></path><path d="M0 223.4C-22.7 214.5 -45.4 205.5 -62.2 191.4C-79 177.3 -90 157.9 -106.2 146.1C-122.3 134.3 -143.7 130.1 -163.8 119C-183.9 107.9 -202.8 90 -212.5 69C-222.2 48.1 -222.8 24 -223.4 0L0 0Z" fill="#95376e"></path><path d="M0 178.8C-18.1 171.6 -36.3 164.4 -49.8 153.1C-63.2 141.8 -72 126.3 -84.9 116.9C-97.9 107.5 -115 104.1 -131.1 95.2C-147.1 86.4 -162.2 72 -170 55.2C-177.8 38.5 -178.3 19.2 -178.7 0L0 0Z" fill="#c73f64"></path><path d="M0 134.1C-13.6 128.7 -27.2 123.3 -37.3 114.8C-47.4 106.4 -54 94.7 -63.7 87.7C-73.4 80.6 -86.2 78.1 -98.3 71.4C-110.4 64.8 -121.7 54 -127.5 41.4C-133.3 28.8 -133.7 14.4 -134.1 0L0 0Z" fill="#ec584d"></path><path d="M0 89.4C-9.1 85.8 -18.1 82.2 -24.9 76.6C-31.6 70.9 -36 63.2 -42.5 58.5C-48.9 53.7 -57.5 52 -65.5 47.6C-73.6 43.2 -81.1 36 -85 27.6C-88.9 19.2 -89.1 9.6 -89.4 0L0 0Z" fill="#fd8128"></path><path d="M0 44.7C-4.5 42.9 -9.1 41.1 -12.4 38.3C-15.8 35.5 -18 31.6 -21.2 29.2C-24.5 26.9 -28.7 26 -32.8 23.8C-36.8 21.6 -40.6 18 -42.5 13.8C-44.4 9.6 -44.6 4.8 -44.7 0L0 0Z" fill="#fd9800"></path></g><g transform="translate(0, 650)"><path d="M0 -357.5C29.2 -329.8 58.3 -302.2 96.1 -295.8C133.9 -289.4 180.3 -304.3 210.1 -289.2C240 -274.1 253.3 -229 265.4 -192.8C277.4 -156.6 288.2 -129.2 303.4 -98.6C318.5 -67.9 338 -34 357.5 0L0 0Z" fill="#091b31"></path><path d="M0 -312.8C25.5 -288.6 51 -264.4 84.1 -258.8C117.1 -253.2 157.7 -266.3 183.9 -253.1C210 -239.9 221.6 -200.4 232.2 -168.7C242.7 -137 252.2 -113.1 265.5 -86.3C278.7 -59.4 295.8 -29.7 312.8 0L0 0Z" fill="#2d2a51"></path><path d="M0 -268.1C21.9 -247.4 43.7 -226.6 72.1 -221.8C100.4 -217.1 135.2 -228.2 157.6 -216.9C180 -205.6 190 -171.8 199 -144.6C208.1 -117.4 216.2 -96.9 227.5 -73.9C238.9 -50.9 253.5 -25.5 268.1 0L0 0Z" fill="#5f3367"></path><path d="M0 -223.4C18.2 -206.1 36.5 -188.8 60.1 -184.9C83.7 -180.9 112.7 -190.2 131.3 -180.8C150 -171.3 158.3 -143.1 165.8 -120.5C173.4 -97.9 180.1 -80.8 189.6 -61.6C199.1 -42.5 211.3 -21.2 223.4 0L0 0Z" fill="#95376e"></path><path d="M0 -178.7C14.6 -164.9 29.2 -151.1 48.1 -147.9C66.9 -144.7 90.1 -152.2 105.1 -144.6C120 -137.1 126.6 -114.5 132.7 -96.4C138.7 -78.3 144.1 -64.6 151.7 -49.3C159.3 -34 169 -17 178.8 0L0 0Z" fill="#c73f64"></path><path d="M0 -134.1C10.9 -123.7 21.9 -113.3 36 -110.9C50.2 -108.5 67.6 -114.1 78.8 -108.5C90 -102.8 95 -85.9 99.5 -72.3C104 -58.7 108.1 -48.5 113.8 -37C119.5 -25.5 126.8 -12.7 134.1 0L0 0Z" fill="#ec584d"></path><path d="M0 -89.4C7.3 -82.5 14.6 -75.5 24 -73.9C33.5 -72.4 45.1 -76.1 52.5 -72.3C60 -68.5 63.3 -57.3 66.3 -48.2C69.4 -39.1 72.1 -32.3 75.8 -24.6C79.6 -17 84.5 -8.5 89.4 0L0 0Z" fill="#fd8128"></path><path d="M0 -44.7C3.6 -41.2 7.3 -37.8 12 -37C16.7 -36.2 22.5 -38 26.3 -36.2C30 -34.3 31.7 -28.6 33.2 -24.1C34.7 -19.6 36 -16.2 37.9 -12.3C39.8 -8.5 42.3 -4.2 44.7 0L0 0Z" fill="#fd9800"></path></g></svg>